# xmcd
#
# Track frame offsets: 
#        150
#        73575
#        123795
#        198575
#
# Disc length: 4082 seconds
#
# Revision: 0
# Processed by: cddbd v1.5.2PL0 Copyright (c) Steve Scherf et al.
# Submitted via: ExactAudioCopy v1.0b1
#
DISCID=330ff004
DTITLE=Eugen Jochum - Beethoven Symphony No.9 in D minor, Op.125 "Chor
DTITLE=al",Japan EMI,CD6
DYEAR=2002
DGENRE=Classical
TTITLE0=Symphony No. 9: Allegro ma non troppo, un poco maestoso
TTITLE1=Symphony No. 9: Molto vivace
TTITLE2=Symphony No. 9: Adagio molto e cantabile
TTITLE3=Symphony No. 9: Presto
EXTD=
EXTT0=
EXTT1=
EXTT2=
EXTT3=
PLAYORDER=
